#!OML:ASF H:\GeneralSubjects\Female5\Project 1\Capture day 1\Session 1\Female5.ASF
:FULLY-SPECIFIED
:DEGREES
485
root -28.2166 15.6081 -3.50134 190.107 50.5171 534.43
lowerback 15.9518 -3.69924 -16.3641
upperback -12.6159 -7.08899 10.343
thorax -20.771 1.2042 25.2118
lowerneck -9.55614 -1.68196 -2.99232
upperneck 44.9297 4.93914 -5.28315
head 18.8999 2.21024 -0.645455
rclavicle -1.10723e-013 1.43125e-013
rhumerus -53.8467 39.7963 -80.1818
rradius 34.2148
rwrist -18.703
rhand -25.9997 -21.5615
rfingers 7.12502
rthumb 0.546009 -51.5406
lclavicle -1.10723e-013 1.43125e-013
lhumerus -55.9244 20.8905 81.7169
lradius 28.8958
lwrist -20.1767
lhand -24.6041 34.7282
lfingers 7.12502
lthumb 1.89393 64.6996
rfemur -31.9704 16.1714 18.2261
rtibia -7.5321
rfoot -44.5269 -33.9753
rtoes 26.9561
lfemur 8.09362 -33.4977 -40.6956
ltibia -3.86287
lfoot -62.17 32.5144
ltoes -55.814
486
root -28.0768 15.5745 -3.59851 190.104 51.0414 534.28
lowerback 15.676 -3.70197 -16.0789
upperback -12.6245 -6.98522 10.2432
thorax -20.6813 1.15726 24.7876
lowerneck -9.60171 -1.796 -3.04311
upperneck 44.9417 4.65247 -5.10158
head 18.8965 2.09635 -0.603107
rclavicle 1.59028e-015 -2.8625e-014
rhumerus -53.2134 37.6857 -78.1386
rradius 32.1354
rwrist -18.421
rhand -25.0555 -22.6948
rfingers 7.12502
rthumb 1.45794 -52.6695
lclavicle 1.59028e-015 -2.8625e-014
lhumerus -55.0469 19.8131 82.3931
lradius 30.0246
lwrist -18.8164
lhand -25.0142 33.2359
lfingers 7.12502
lthumb 1.49781 63.2104
rfemur -31.5909 16.4981 18.2483
rtibia -7.76619
rfoot -46.0952 -35.3977
rtoes 26.6002
lfemur 8.77679 -33.1694 -41.1437
ltibia -3.82299
lfoot -62.708 32.3429
ltoes -56.0861
487
root -27.9266 15.5395 -3.70041 190.018 51.5674 534.072
lowerback 15.4261 -3.71214 -15.8161
upperback -12.647 -6.90619 10.1391
thorax -20.6122 1.10982 24.3901
lowerneck -9.67934 -1.98709 -3.14131
upperneck 45.0828 4.2707 -4.87564
head 18.9836 1.94495 -0.547337
rclavicle -3.97569e-015 -1.04958e-013
rhumerus -52.7395 35.7339 -76.236
rradius 30.0492
rwrist -17.538
rhand -24.753 -24.3502
rfingers 7.12502
rthumb 1.75009 -54.3228
lclavicle -3.97569e-015 -1.04958e-013
lhumerus -54.3185 18.9737 82.8039
lradius 31.0672
lwrist -17.8568
lhand -24.4922 32.78
lfingers 7.12502
lthumb 2.00205 62.7503
rfemur -31.3385 16.7264 18.1363
rtibia -6.54428
rfoot -47.4253 -35.762
rtoes 26.631
lfemur 9.56835 -32.9438 -41.7109
ltibia -3.75202
lfoot -63.5302 31.9193
ltoes -55.6521
488
root -27.7666 15.5037 -3.80135 189.932 52.1087 533.92
lowerback 15.2095 -3.68305 -15.7055
upperback -12.6646 -6.80334 10.1074
thorax -20.5563 1.11966 24.2084
lowerneck -9.7208 -2.18677 -3.22627
upperneck 45.1754 3.9163 -4.76882
head 19.0388 1.79484 -0.546307
rclavicle 5.28767e-014 -8.90555e-014
rhumerus -52.6968 34.1034 -74.613
rradius 28.1612
rwrist -16.7201
rhand -25.171 -24.5139
rfingers 7.12502
rthumb 1.34637 -54.4894
lclavicle 5.28767e-014 -8.90555e-014
lhumerus -53.6132 18.53 83.037
lradius 31.6993
lwrist -16.9916
lhand -24.3556 31.9457
lfingers 7.12502
lthumb 2.13393 61.9148
rfemur -31.1359 16.9341 18.0179
rtibia -4.95257
rfoot -48.0225 -37.0822
rtoes 24.3111
lfemur 11.2664 -34.7125 -43.0037
ltibia -4.13672
lfoot -66.463 31.6309
ltoes -54.096
489
root -27.5963 15.4674 -3.89984 189.997 52.629 533.964
lowerback 14.9902 -3.69082 -15.3406
upperback -12.6401 -6.67335 10.1031
thorax -20.4744 1.0924 23.8803
lowerneck -9.92355 -2.28988 -3.52796
upperneck 45.2525 3.69615 -4.48678
head 19.127 1.67348 -0.396937
rclavicle -5.60573e-014 1.17681e-013
rhumerus -52.6374 32.6295 -73.1557
rradius 26.3382
rwrist -15.6208
rhand -25.5811 -24.223
rfingers 7.12502
rthumb 0.950358 -54.2007
lclavicle -5.60573e-014 1.17681e-013
lhumerus -52.8219 18.2343 83.2153
lradius 32.2451
lwrist -16.3102
lhand -25.3212 32.0396
lfingers 7.12502
lthumb 1.20138 62.016
rfemur -30.7159 17.2434 18.1427
rtibia -5.06744
rfoot -46.741 -42.9525
rtoes 18.1766
lfemur 13.2113 -36.9996 -44.4192
ltibia -4.6189
lfoot -69.8017 31.2624
ltoes -52.8235
490
root -27.4138 15.4331 -3.99734 190.197 53.0545 534.229
lowerback 14.7736 -3.72063 -14.8504
upperback -12.609 -6.54048 10.1001
thorax -20.3956 1.04626 23.4695
lowerneck -9.99888 -2.38804 -3.57198
upperneck 45.2547 3.46395 -4.36982
head 19.1372 1.57565 -0.377148
rclavicle 1.35969e-013 -4.13472e-014
rhumerus -52.8708 31.469 -72.3009
rradius 24.6409
rwrist -15.2717
rhand -26.112 -24.3911
rfingers 7.12502
rthumb 0.437614 -54.3704
lclavicle 1.35969e-013 -4.13472e-014
lhumerus -52.0982 17.8784 83.3427
lradius 32.801
lwrist -15.8388
lhand -26.9613 34.2793
lfingers 7.12502
lthumb -0.382708 64.2587
rfemur -29.9856 17.6386 18.6135
rtibia -5.62283
rfoot -44.0426 -46.0582
rtoes 9.88136
lfemur 14.0318 -36.4394 -44.6394
ltibia -4.39569
lfoot -69.858 31.3389
ltoes -53.6227
491
root -27.2183 15.4056 -4.09057 190.608 53.4816 534.819
lowerback 14.5786 -3.75768 -14.2412
upperback -12.557 -6.38149 10.1323
thorax -20.3243 0.999647 23.0268
lowerneck -10.1144 -2.48426 -3.46239
upperneck 45.255 3.24233 -4.37544
head 19.1632 1.49158 -0.443691
rclavicle -3.99557e-014 -8.5875e-014
rhumerus -53.5831 30.7467 -72.1681
rradius 23.4104
rwrist -16.0598
rhand -26.5702 -24.6455
rfingers 7.12502
rthumb -0.00495029 -54.6253
lclavicle -3.99557e-014 -8.5875e-014
lhumerus -51.4025 17.4635 83.5407
lradius 33.2393
lwrist -14.8496
lhand -26.4762 34.4256
lfingers 7.12502
lthumb 0.0858537 64.4053
rfemur -29.324 18.1041 19.3316
rtibia -5.82076
rfoot -40.6912 -45.2644
rtoes 11.1697
lfemur 15.4459 -36.508 -45.184
ltibia -4.01916
lfoot -71.1084 31.7886
ltoes -54.2275
492
root -27.025 15.3907 -4.18873 191.266 54.0377 535.636
lowerback 14.3563 -3.77854 -13.4165
upperback -12.5234 -6.1267 10.1957
thorax -20.3243 0.985699 22.4695
lowerneck -10.2631 -2.56334 -3.47008
upperneck 45.2836 3.05749 -4.3057
head 19.2164 1.41127 -0.445508
rclavicle 2.60408e-014 4.45278e-014
rhumerus -54.067 29.8169 -71.6882
rradius 22.4405
rwrist -15.9451
rhand -25.8116 -25.4144
rfingers 7.12502
rthumb 0.72771 -55.3929
lclavicle 2.60408e-014 4.45278e-014
lhumerus -50.7941 17.3925 83.5576
lradius 33.556
lwrist -14.4365
lhand -26.9603 35.0777
lfingers 7.12502
lthumb -0.381763 65.0571
rfemur -29.298 18.4789 19.8375
rtibia -4.94582
rfoot -37.0812 -43.2033
rtoes 16.8845
lfemur 14.5283 -32.7985 -43.3643
ltibia -3.01739
lfoot -68.2197 31.0596
ltoes -55.7976
493
root -26.8388 15.3946 -4.29524 191.828 54.6045 536.311
lowerback 14.2125 -3.79913 -12.4628
upperback -12.5093 -5.87256 10.1692
thorax -20.414 0.951659 21.7193
lowerneck -10.4299 -2.63201 -3.41836
upperneck 45.3081 2.87057 -4.24265
head 19.2719 1.33792 -0.462524
rclavicle -4.41302e-014 -4.45278e-014
rhumerus -54.3376 28.7544 -71.1488
rradius 21.4836
rwrist -14.5832
rhand -25.1397 -25.9433
rfingers 7.12502
rthumb 1.37667 -55.9186
lclavicle -4.41302e-014 -4.45278e-014
lhumerus -50.2544 17.6622 83.1829
lradius 33.6709
lwrist -14.8831
lhand -27.1849 36.5873
lfingers 7.12502
lthumb -0.598703 66.5662
rfemur -29.7016 18.5954 19.935
rtibia -3.29473
rfoot -36.4072 -44.1805
rtoes 12.7256
lfemur 14.6608 -31.5811 -42.8481
ltibia -2.4446
lfoot -68.1639 30.2533
ltoes -56.1551
494
root -26.6385 15.4124 -4.39398 192.262 55.0419 537.064
lowerback 14.2574 -3.8442 -11.5173
upperback -12.4639 -5.69925 10.0857
thorax -20.5475 0.874469 20.9415
lowerneck -10.608 -2.6696 -3.26286
upperneck 45.4132 2.66097 -4.05454
head 19.3783 1.29159 -0.441432
rclavicle 2.18663e-015 -7.63333e-014
rhumerus -54.9982 28.0471 -71.3566
rradius 20.964
rwrist -13.4683
rhand -25.0348 -26.2499
rfingers 7.12502
rthumb 1.478 -56.2245
lclavicle 2.18663e-015 -7.63333e-014
lhumerus -49.7041 17.5302 83.0334
lradius 33.5971
lwrist -14.2871
lhand -28.2384 37.4981
lfingers 7.12502
lthumb -1.61612 67.4717
rfemur -29.714 18.6646 20.2435
rtibia -1.6942
rfoot -37.2289 -43.9809
rtoes 13.6156
lfemur 14.8464 -30.1079 -42.0153
ltibia -2.19168
lfoot -67.5369 29.3101
ltoes -56.097
495
root -26.4093 15.4258 -4.46593 193.091 55.7021 538.292
lowerback 14.0856 -3.82811 -10.8542
upperback -12.3848 -5.468 10.1207
thorax -20.4808 0.855195 20.456
lowerneck -10.7438 -2.69951 -3.23788
upperneck 45.6184 2.4038 -3.5948
head 19.5324 1.24486 -0.269765
rclavicle -3.97569e-015 -3.49861e-014
rhumerus -55.6603 27.5584 -71.7679
rradius 20.9249
rwrist -13.1291
rhand -23.9891 -26.4305
rfingers 7.12502
rthumb 2.48792 -56.3957
lclavicle -3.97569e-015 -3.49861e-014
lhumerus -49.1562 17.2898 83.0011
lradius 33.3794
lwrist -13.8778
lhand -28.278 36.6406
lfingers 7.12502
lthumb -1.65437 66.614
rfemur -29.7196 19.3146 21.1182
rtibia -0.0840652
rfoot -38.2817 -42.9831
rtoes 15.8991
lfemur 13.9073 -24.8 -39.1523
ltibia -0.372037
lfoot -62.9903 28.172
ltoes -58.0934
